# Blender v2.92.0 OBJ File: ''
# www.blender.org
mtllib rockB.mtl
o ICO球.001
v -0.960754 1.252587 0.935550
v -1.109392 0.302198 -1.458196
v -0.541033 1.206119 -1.297535
v -0.740770 1.290099 1.070780
v 0.884716 1.523550 -0.459247
v 0.107524 1.656333 0.464711
v 0.874696 1.565126 0.380448
v -0.546256 1.215761 -1.282567
v -1.019290 1.383543 0.182376
v -1.317264 1.077926 -0.193351
v -0.559213 1.203738 -1.294905
v -0.581313 1.189895 -1.294914
v -0.333476 1.671283 -0.265138
v -0.251082 1.650994 -0.492095
v 0.986296 1.452832 0.476928
v 0.896598 1.561568 0.358228
v 0.886364 1.523463 -0.457174
v -0.088529 1.074892 -1.418769
v 0.896162 1.499733 -0.496537
v 0.907592 1.493612 -0.494435
v 1.322335 0.945069 -0.672323
v 0.192293 0.621736 -1.602847
v 1.212637 0.451720 -1.122276
v -1.150253 0.931756 1.146453
v -0.750836 1.002286 1.389241
v -1.112476 0.298165 -1.457789
v -1.110898 0.296443 -1.459605
v -0.061321 -0.004119 -1.739688
v -0.929608 -0.050528 -1.594377
v 1.498918 -1.131483 -0.107820
v 1.558587 -1.052630 -0.146601
v 0.195547 -0.221166 1.614482
v -1.305269 0.737761 1.075494
v -0.822966 -0.343114 1.531503
v -1.440067 0.027335 1.089442
v -0.841071 -0.954767 -1.296912
v -1.672908 0.583618 -0.181022
v -1.680179 0.302619 -0.500769
v -1.667481 0.527813 0.044116
v -1.637712 -0.278747 0.647150
v -1.225555 -1.230086 0.444021
v -1.266576 -1.222675 0.244235
v -1.521749 -0.857724 -0.194777
v -1.653528 -0.268134 0.589669
v -1.670001 -0.512795 -0.114818
v 1.254154 1.124455 0.773123
v 1.653266 0.584954 0.417293
v 1.729023 -0.199948 0.564963
v 1.037041 0.015824 1.408818
v 0.864109 0.587574 1.456418
v 1.597566 -0.285979 0.765324
v 1.195316 -0.253899 1.285294
v 0.144927 -1.085881 1.397282
v -0.505044 -1.096420 1.361025
v -0.742438 -1.353545 0.908026
v 0.659183 -1.207946 1.199551
v 1.274079 -1.303244 0.202610
v 1.136214 -1.289644 0.548810
v 0.763798 -1.345750 0.963176
v 0.218419 -1.625289 0.462750
v 0.441548 -0.853581 -1.522774
v -0.379704 -1.332044 -1.236036
v -0.277619 -1.516656 -0.960267
v 1.006467 -1.507680 -0.465600
v 0.447450 -1.705201 -0.433933
v 0.990895 -1.519576 -0.456560
v 1.419459 -1.008035 -0.620162
v 1.251587 -0.523360 -1.129144
v 0.750221 -0.872829 -1.376554
v 1.132873 -1.272618 -0.715674
v -0.412164 0.693835 1.646532
v -0.610281 -0.024604 1.621550
v -0.062691 0.100710 1.680989
v -0.058024 0.582207 1.683978
vt 0.314995 0.261410
vt 0.314794 0.261582
vt 0.315036 0.261885
vt 0.974871 0.317563
vt 0.938812 0.350834
vt 0.961225 0.350831
vt 0.352002 0.336897
vt 0.206760 0.332422
vt 0.354280 0.339651
vt 0.282032 0.362979
vt 0.410220 0.350831
vt 0.781113 0.350834
vt 0.355008 0.338445
vt 0.353633 0.338147
vt 0.420570 0.399093
vt 0.477713 0.404677
vt 0.740140 0.409263
vt 0.711599 0.383366
vt 0.712545 0.369315
vt 0.709256 0.382921
vt 0.556933 0.378153
vt 0.554952 0.375183
vt 0.556732 0.378164
vt 0.397405 0.329121
vt 0.422666 0.290476
vt 0.563897 0.317664
vt 0.530169 0.189561
vt 0.576471 0.117866
vt 0.480078 0.163823
vt 0.859842 0.243202
vt 0.898682 0.290526
vt 0.485636 0.232173
vt 0.773121 0.237084
vt 0.703237 0.210163
vt 0.671014 0.285784
vt 0.168369 0.212831
vt 0.191999 0.189369
vt 0.151529 0.126564
vt 0.320701 0.153545
vt 0.333336 0.231226
vt 0.402910 0.235138
vt 0.208428 0.332422
vt 0.197716 0.283641
vt 0.308329 0.278618
vt 0.223289 0.259953
vt 0.164611 0.212113
vt 0.193861 0.239482
vt 0.842984 0.217592
vt 0.786426 0.285416
vt 0.680823 0.219743
vt 0.623899 0.151280
vt 0.581903 0.148418
vt 0.718221 0.329896
vt 0.868927 0.282411
vt 0.422117 0.112333
vt 0.045924 0.134004
vt 0.203360 0.206067
vt 0.758100 0.214140
vt 0.798511 0.131705
vt 0.665529 0.077654
vt 0.841563 0.142098
vt 0.712069 0.118744
vt 0.781872 0.114838
vt 0.651753 0.121784
vt 0.628173 0.143276
vt 0.601684 0.094716
vt 0.600997 0.096204
vt 0.151299 0.126564
vt 0.394126 0.094478
vt 0.204227 0.159936
vt 0.492480 0.062371
vt 0.390649 0.094478
vt 0.449819 0.167759
vt 0.830951 0.301578
vt 0.921377 0.317846
vt 0.934223 0.317846
vt 0.555591 0.374418
vt 0.530572 0.275308
vt 0.185737 0.125921
vt 0.392094 0.111165
vt 0.468422 0.362979
vt 0.197415 0.283641
vt 0.559349 0.117866
vn -0.5346 0.3304 -0.7778
vn -0.4713 0.6617 0.5831
vn -0.5126 0.8185 -0.2593
vn -0.2749 0.9434 0.1854
vn -0.1876 0.7947 -0.5773
vn 0.1127 0.9925 -0.0478
vn 0.4911 0.7947 0.3568
vn 0.4911 0.7947 -0.3568
vn 0.1104 0.8526 -0.5107
vn 0.4283 0.5551 -0.7130
vn -0.1730 0.2768 -0.9452
vn 0.6273 -0.4501 -0.6355
vn -0.1068 -0.0051 0.9943
vn 0.7825 0.1872 0.5938
vn -0.8911 -0.4218 0.1673
vn -0.1395 -0.3217 -0.9365
vn -0.7990 0.5789 0.1628
vn -0.7348 0.5177 -0.4383
vn -0.9997 -0.0012 0.0238
vn -0.8345 -0.2442 -0.4939
vn -0.9385 0.1838 0.2922
vn 0.2396 -0.0083 0.9708
vn 0.9597 0.0403 -0.2782
vn 0.7910 0.6106 -0.0385
vn 0.1598 0.7299 0.6647
vn -0.6816 -0.4228 0.5972
vn 0.2955 -0.2490 0.9223
vn -0.0138 -0.8665 0.4990
vn 0.6961 -0.4420 0.5658
vn 0.8223 -0.4524 0.3452
vn 0.3249 -0.9311 0.1660
vn 0.6071 -0.7947 -0.0000
vn -0.2642 -0.9643 0.0185
vn -0.5819 -0.7588 -0.2926
vn 0.2363 -0.7648 -0.5994
vn 0.4292 0.0235 -0.9029
vn 0.7002 -0.6617 -0.2680
vn -0.0502 -0.2405 0.9693
vn -0.5309 0.1172 0.8393
vn -0.1729 0.2768 -0.9452
usemtl マテリアル.001
s off
f 27/1/1 26/2/1 2/3/1
f 24/4/2 4/5/2 1/6/2
f 12/7/3 10/8/3 8/9/3
f 9/10/4 1/11/4 4/12/4
f 3/13/5 11/14/5 8/9/5
f 14/15/6 13/16/6 6/17/6
f 7/18/7 15/19/7 16/20/7
f 17/21/8 19/22/8 5/23/8
f 19/22/9 18/24/9 14/15/9
f 22/25/10 19/22/10 21/26/10
f 3/13/11 18/24/11 12/7/11
f 68/27/12 70/28/12 69/29/12
f 73/30/13 71/31/13 72/32/13
f 49/33/14 51/34/14 47/35/14
f 44/36/15 45/37/15 42/38/15
f 36/39/16 29/40/16 28/41/16
f 10/42/17 37/43/17 39/44/17
f 2/3/18 38/45/18 10/8/18
f 45/37/19 44/36/19 39/44/19
f 45/37/20 38/45/20 36/39/20
f 44/36/21 40/46/21 35/47/21
f 32/48/22 49/33/22 50/49/22
f 48/50/23 31/51/23 67/52/23
f 15/19/24 46/53/24 47/35/24
f 6/17/25 4/12/25 74/54/25
f 55/55/26 54/56/26 34/57/26
f 52/58/27 32/48/27 56/59/27
f 55/55/28 60/60/28 53/61/28
f 58/62/29 52/58/29 59/63/29
f 57/64/30 31/51/30 51/34/30
f 58/62/31 59/63/31 60/60/31
f 30/65/32 66/66/32 64/67/32
f 60/60/33 55/55/33 42/68/33
f 63/69/34 42/38/34 43/70/34
f 65/71/35 63/72/35 69/29/35
f 69/29/36 61/73/36 28/41/36
f 67/52/37 30/65/37 70/28/37
f 34/57/38 54/56/38 32/48/38
f 33/74/39 72/32/39 25/75/39
f 24/4/2 25/76/2 4/5/2
f 10/8/3 9/10/3 13/16/3
f 13/16/3 14/15/3 10/8/3
f 14/15/3 8/9/3 10/8/3
f 8/9/3 11/14/3 12/7/3
f 4/12/4 6/17/4 9/10/4
f 6/17/4 13/16/4 9/10/4
f 6/17/6 7/18/6 17/21/6
f 7/18/6 16/20/6 17/21/6
f 6/17/6 17/21/6 5/23/6
f 5/23/6 14/15/6 6/17/6
f 17/21/8 20/77/8 19/22/8
f 3/13/9 8/9/9 18/24/9
f 8/9/9 14/15/9 18/24/9
f 14/15/9 5/23/9 19/22/9
f 23/78/10 22/25/10 21/26/10
f 22/25/10 18/24/10 19/22/10
f 21/26/10 19/22/10 20/77/10
f 18/24/11 22/25/11 2/3/11
f 22/25/11 28/41/11 2/3/11
f 2/3/11 28/41/11 29/40/11
f 29/40/40 27/1/40 2/3/40
f 2/3/11 12/7/11 18/24/11
f 12/7/11 11/14/11 3/13/11
f 68/27/12 67/52/12 70/28/12
f 73/30/13 74/54/13 71/31/13
f 46/53/14 50/49/14 47/35/14
f 50/49/14 49/33/14 47/35/14
f 49/33/14 52/58/14 51/34/14
f 51/34/14 48/50/14 47/35/14
f 45/37/15 43/70/15 42/38/15
f 42/38/15 41/79/15 44/36/15
f 41/79/15 40/46/15 44/36/15
f 28/41/16 61/73/16 36/39/16
f 61/73/16 62/80/16 36/39/16
f 39/44/17 33/74/17 9/81/17
f 33/74/17 24/4/17 1/6/17
f 9/81/17 33/74/17 1/6/17
f 9/81/17 10/42/17 39/44/17
f 10/8/18 12/7/18 2/3/18
f 2/3/18 26/2/18 38/45/18
f 38/45/18 37/82/18 10/8/18
f 39/44/19 37/82/19 38/45/19
f 38/45/19 45/37/19 39/44/19
f 38/45/20 26/2/20 29/40/20
f 26/2/20 27/1/20 29/40/20
f 29/40/20 36/39/20 38/45/20
f 36/39/20 43/70/20 45/37/20
f 33/74/21 39/44/21 35/47/21
f 39/44/21 44/36/21 35/47/21
f 50/49/22 74/54/22 73/30/22
f 73/30/22 32/48/22 50/49/22
f 67/52/23 68/27/23 48/50/23
f 68/27/23 23/78/23 48/50/23
f 23/78/23 21/26/23 47/35/23
f 47/35/23 48/50/23 23/78/23
f 47/35/24 21/26/24 15/19/24
f 21/26/24 20/77/24 15/19/24
f 20/77/24 17/21/24 15/19/24
f 17/21/24 16/20/24 15/19/24
f 25/75/25 71/31/25 4/12/25
f 71/31/25 74/54/25 4/12/25
f 74/54/25 50/49/25 6/17/25
f 50/49/25 46/53/25 15/19/25
f 6/17/25 50/49/25 15/19/25
f 15/19/25 7/18/25 6/17/25
f 35/47/26 40/46/26 34/57/26
f 40/46/26 41/79/26 34/57/26
f 41/79/26 55/55/26 34/57/26
f 49/33/27 32/48/27 52/58/27
f 32/48/27 53/61/27 56/59/27
f 59/63/28 56/59/28 60/60/28
f 56/59/28 53/61/28 60/60/28
f 53/61/28 54/56/28 55/55/28
f 51/34/29 52/58/29 58/62/29
f 52/58/29 56/59/29 59/63/29
f 48/50/30 51/34/30 31/51/30
f 51/34/30 58/62/30 57/64/30
f 57/64/30 30/65/30 31/51/30
f 60/60/31 65/71/31 57/64/31
f 65/71/31 66/66/31 57/64/31
f 57/64/31 58/62/31 60/60/31
f 30/65/32 57/64/32 66/66/32
f 41/79/33 42/68/33 55/55/33
f 42/68/33 63/72/33 60/60/33
f 63/72/33 65/71/33 60/60/33
f 43/70/34 36/39/34 63/69/34
f 36/39/34 62/80/34 63/69/34
f 63/72/35 62/80/35 61/73/35
f 61/73/35 69/29/35 63/72/35
f 69/29/35 70/83/35 65/71/35
f 70/83/35 64/67/35 66/66/35
f 66/66/35 65/71/35 70/83/35
f 22/25/36 23/78/36 28/41/36
f 23/78/36 68/27/36 28/41/36
f 68/27/36 69/29/36 28/41/36
f 31/51/37 30/65/37 67/52/37
f 30/65/37 64/67/37 70/28/37
f 53/61/38 32/48/38 54/56/38
f 32/48/38 73/30/38 72/32/38
f 34/57/38 32/48/38 72/32/38
f 25/75/39 24/4/39 33/74/39
f 33/74/39 35/47/39 72/32/39
f 35/47/39 34/57/39 72/32/39
f 72/32/39 71/31/39 25/75/39
