# Blender v2.92.0 OBJ File: ''
# www.blender.org
mtllib rockA.mtl
o ICO球
v -1.667659 -0.833834 0.000000
v -1.283130 -0.980236 -0.932245
v 0.490119 -0.980239 -1.508403
v -1.369484 0.793894 -0.960858
v -1.362536 0.842104 -0.924892
v -0.841846 1.520001 -0.611630
v -1.308333 0.699389 -1.065384
v -0.565930 1.586046 -0.649938
v -0.827168 1.559955 -0.551339
v -0.810582 1.562286 -0.588915
v -0.748484 1.568539 -0.614717
v -0.802359 1.563162 -0.594567
v 1.430071 0.924291 -0.576004
v 0.465255 1.011142 -1.431933
v 0.063791 1.231356 -1.257987
v -0.356248 1.586046 -0.718069
v -0.212104 1.444981 -0.959066
v 0.249636 1.643791 0.142798
v -0.354721 1.605638 -0.659899
v 1.526385 0.988419 0.000000
v 0.619263 1.537643 0.260844
v 1.388998 1.128167 -0.035964
v 1.242117 -0.481359 -1.203496
v 0.900802 -0.315726 -1.508410
v 0.675182 0.954188 -1.355292
v 1.429227 0.923518 -0.579199
v -0.834953 1.554008 -0.545683
v -1.422591 0.879221 -0.676367
v -0.828271 1.559113 -0.516931
v -0.263407 -0.870522 1.566585
v 0.652816 -0.952512 1.408369
v 0.839755 -0.414504 1.508409
v 0.372209 -1.070314 1.422736
v 0.523608 -1.047217 1.405333
v -0.136526 1.600293 0.517405
v 0.336162 1.464500 0.668523
v -0.653322 0.353094 1.581317
v -0.908609 1.351998 0.684576
v -0.757924 1.543092 0.526334
v 1.738111 0.277481 -0.384423
v 1.605714 0.857418 -0.150178
v 1.560821 0.950739 0.000000
v 1.557152 0.949319 0.018467
v 0.967201 -1.350456 -0.702705
v -0.318340 -1.531368 -0.979767
v 0.677524 -1.355059 -0.931609
v -0.190008 -1.499806 -1.014262
v -0.361554 -1.549796 -0.932242
v -0.400015 -1.586046 -0.798576
v 1.031953 -1.403514 -0.402556
v -0.772360 -0.882850 -1.367170
v 0.011124 -0.910495 -1.545388
v -1.157300 0.202082 -1.380404
v 0.306846 -0.613692 -1.641561
v -1.211899 0.000000 -1.348791
v -1.152358 -0.295484 -1.334732
v -0.882531 0.443818 -1.466561
v -0.463253 -1.018231 -1.425771
v 0.094828 1.013298 -1.449089
v 0.469816 0.994994 -1.445968
v 0.699229 -0.030455 -1.631192
v 0.588168 0.908670 -1.459844
v -0.552862 0.525440 -1.550324
v 0.368097 -0.294789 -1.685701
v -0.285186 0.000000 1.771839
v -0.276668 -0.015485 1.772545
v -0.272999 0.208641 1.733900
v 0.901517 -0.314568 1.508410
v 0.651636 0.656143 1.401467
v 1.460965 0.405305 0.849638
v 1.500229 -0.013343 0.949061
v 1.202764 -0.351782 1.285576
v 0.798135 -0.222942 1.560401
v 0.586367 0.559449 1.482270
v 0.781609 -0.204076 1.567402
v -0.333355 -0.860338 1.571986
v -0.443552 -1.087995 1.365134
v -1.604167 -0.338164 0.698999
v -1.497218 0.000000 0.956080
v -1.412847 0.059643 1.059358
v -0.344986 -0.779094 1.600740
v -0.849867 0.087718 1.570747
v -0.743043 0.000000 1.623072
v -0.396678 -0.557852 1.661336
v -1.688858 -0.666430 0.115671
v -1.699277 -0.584148 -0.172526
v -1.667075 0.000000 -0.722291
v -1.683280 -0.179938 -0.641521
v -1.632479 0.276785 -0.710278
v -1.532494 0.177527 0.869281
v -1.491961 0.680027 0.577183
v -1.562130 0.693274 -0.434428
v -1.606917 -0.332663 0.697001
v -1.553471 0.000000 0.878654
v 1.324217 -0.867586 -0.962089
v 1.336953 -0.835923 -0.987725
v 1.446144 -0.643162 0.887817
v 1.344353 -0.817990 -0.990257
v 1.576122 -0.266810 -0.789997
v 1.752791 0.147400 -0.479365
v 1.754190 0.150502 -0.472162
v 1.754548 0.147675 -0.373925
v 1.149049 -1.314061 -0.317483
v 1.580364 -0.315324 0.773706
v -1.623508 -0.850644 0.107040
v -0.345207 -1.436233 1.062455
v -1.647001 -0.856439 0.000000
v -0.590199 -1.586044 -0.536813
v -1.148459 -1.249576 -0.517771
v -0.149840 -1.586046 0.882509
v -0.220928 -1.523427 0.991797
v -0.390334 -1.675735 -0.377342
v -0.031445 -1.760360 0.322065
v -0.733842 -1.206486 1.051464
v -1.449379 -0.866616 0.581959
v 1.405987 -0.722120 0.926078
v 0.306714 -1.586046 0.734163
v 0.599402 -1.198811 1.172052
v 1.033164 -0.887694 1.174511
v 0.920158 -1.488918 -0.105926
v 1.319703 -0.736826 1.041670
v 1.154520 -1.309882 -0.077683
v 1.410911 -0.728607 0.901456
v 0.349449 -1.700790 0.376683
vt 0.231101 0.289424
vt 0.232152 0.318689
vt 0.261610 0.318689
vt 0.293988 0.409548
vt 0.224196 0.409548
vt 0.260840 0.473018
vt 0.418470 0.473083
vt 0.325180 0.550524
vt 0.385181 0.606158
vt 0.317627 0.391102
vt 0.314191 0.386739
vt 0.316746 0.391165
vt 0.828469 0.479742
vt 0.823403 0.461986
vt 0.818055 0.471249
vt 0.466479 0.353333
vt 0.389034 0.331624
vt 0.434023 0.409548
vt 0.119283 0.409548
vt 0.200874 0.369153
vt 0.120859 0.406818
vt 0.263940 0.522426
vt 0.232655 0.576615
vt 0.292712 0.542619
vt 0.318465 0.682124
vt 0.281594 0.679498
vt 0.298392 0.682124
vt 0.316961 0.688517
vt 0.653780 0.604864
vt 0.652003 0.605386
vt 0.654631 0.609937
vt 0.421659 0.612681
vt 0.422785 0.610731
vt 0.633070 0.609937
vt 0.626950 0.591265
vt 0.619671 0.626135
vt 0.453210 0.601566
vt 0.372975 0.633058
vt 0.693558 0.701591
vt 0.469584 0.471142
vt 0.516762 0.447956
vt 0.537940 0.411276
vt 0.565094 0.471334
vt 0.609806 0.516498
vt 0.600862 0.516806
vt 0.608850 0.530642
vt 0.191675 0.591265
vt 0.218275 0.591265
vt 0.221683 0.586912
vt 0.169480 0.678211
vt 0.168965 0.677319
vt 0.166348 0.678085
vt 0.173396 0.679254
vt 0.176345 0.674147
vt 0.834752 0.376767
vt 0.833808 0.409548
vt 0.847878 0.399503
vt 0.939604 0.409548
vt 0.932305 0.409548
vt 0.940932 0.417501
vt 0.812247 0.666553
vt 0.710318 0.679925
vt 0.251710 0.679182
vt 0.579028 0.591265
vt 0.933448 0.519746
vt 0.933436 0.500407
vt 0.932678 0.498719
vt 0.634207 0.333256
vt 0.614945 0.359481
vt 0.636778 0.360108
vt 0.574964 0.347146
vt 0.541290 0.405472
vt 0.384043 0.409548
vt 0.414408 0.443524
vt 0.316251 0.387276
vt 0.273514 0.324126
vt 0.450241 0.598250
vt 0.446388 0.612681
vt 0.465104 0.601566
vt 0.337727 0.660967
vt 0.977267 0.500407
vt 0.970673 0.533135
vt 0.779091 0.462075
vt 0.732576 0.538717
vt 0.738385 0.498953
vt 0.721181 0.466048
vt 0.830959 0.573110
vt 0.830160 0.481488
vt 0.946199 0.439621
vt 0.024070 0.500407
vt 0.032351 0.519751
vt 0.032783 0.500407
vt 0.048729 0.469062
vt 0.049023 0.469572
vt 0.036402 0.094411
vt 0.015358 0.130860
vt 0.055353 0.124589
vt 0.134990 0.436755
vt 0.141765 0.570747
vt 0.117706 0.406818
vt 0.107236 0.409548
vt 0.940868 0.378849
vt 0.916582 0.336785
vt 0.861477 0.396039
vt 0.163493 0.568700
vt 0.891025 0.652138
vt 0.011948 0.506906
vt 0.188185 0.500407
vt 0.181369 0.483728
vt 0.189152 0.530566
vt 0.108751 0.427789
vt 0.578685 0.591140
vt 0.448676 0.497584
vt 0.754868 0.420119
vt 0.736769 0.430325
vt 0.537445 0.409548
vt 0.536584 0.405472
vt 0.741736 0.421722
vt 0.739130 0.421436
vt 0.054575 0.415310
vt 0.252511 0.371612
vt 0.847775 0.318689
vt 0.865462 0.261811
vt 0.834017 0.281249
vt 0.600108 0.516390
vt 0.141969 0.289424
vt 0.787357 0.409548
vt 0.900712 0.328081
vt 0.445262 0.610731
vt 0.635698 0.605386
vt 0.659936 0.626135
vt 0.868604 0.688199
vt 0.914908 0.675682
vt 0.352420 0.688517
vt 0.841830 0.561779
vt 0.607199 0.346065
vt 0.377753 0.325294
vt 0.341969 0.387276
vt 0.280466 0.325294
vt 0.258690 0.500407
vt 0.987989 0.508537
vt 0.502910 0.347146
vt 0.891482 0.318689
vt 0.851109 0.261811
vt 0.741495 0.281249
vn -0.2680 -0.9435 -0.1947
vn -0.5746 -0.3304 -0.7488
vn 0.0170 0.1814 -0.9833
vn -0.4713 0.6617 -0.5831
vn 0.3035 -0.1876 0.9342
vn 0.1876 -0.7947 -0.5773
vn -0.7240 -0.6617 -0.1947
vn -0.5346 0.3304 -0.7779
vn -0.1876 0.7947 -0.5773
vn -0.1024 0.9435 -0.3151
vn 0.7240 0.6617 0.1947
vn 0.0385 0.6617 -0.7488
vn 0.7240 0.6617 -0.1947
vn 0.3520 0.8842 -0.3070
vn 0.5346 -0.3304 -0.7779
vn 0.8026 -0.1256 -0.5831
vn 0.9921 0.1256 0.0000
vn -0.9050 0.3304 -0.2680
vn -0.6071 0.7947 -0.0000
vn -0.7002 0.6617 -0.2680
vn 0.4713 -0.6617 0.5831
vn 0.0248 -0.3304 0.9435
vn 0.1769 0.9401 0.2915
vn -0.0913 0.9956 0.0214
vn 0.8897 0.3304 -0.3151
vn 0.2156 0.1625 0.9629
vn 0.6071 -0.7947 -0.0000
vn 0.7002 -0.6617 -0.2680
vn 0.0247 -0.3304 -0.9435
vn -0.0385 -0.6617 -0.7488
vn -0.4089 -0.6617 -0.6284
vn -0.2239 -0.0913 -0.9703
vn 0.3035 -0.1876 -0.9342
vn 0.4089 0.6617 -0.6284
vn -0.3331 0.5942 -0.7321
vn -0.3066 -0.1256 0.9435
vn -0.3035 0.1876 0.9342
vn 0.5964 0.2380 0.7666
vn 0.9692 0.1392 0.2032
vn -0.0500 0.6601 0.7495
vn 0.5491 0.6688 0.5013
vn 0.1456 -0.2295 0.9623
vn -0.8026 0.1256 0.5831
vn -0.7946 -0.1876 0.5774
vn -0.4089 -0.6617 0.6284
vn -0.9902 0.1207 0.0703
vn -0.7240 -0.6617 0.1947
vn -0.0385 -0.6617 0.7488
vn -0.7585 0.6487 0.0611
vn -0.6182 0.4317 0.6569
vn -0.7947 -0.1876 -0.5773
vn -0.8026 0.1256 -0.5831
vn -0.8897 -0.3304 -0.3151
vn -0.9921 -0.1256 -0.0000
vn 0.7058 0.2071 -0.6775
vn 0.8026 -0.1256 0.5831
vn 0.4713 -0.6617 -0.5831
vn 0.9050 -0.3304 0.2680
vn -0.6233 -0.3387 0.7048
vn 0.1024 -0.9435 0.3151
vn -0.4911 -0.7947 -0.3568
vn -0.5059 -0.8482 0.1570
vn -0.8897 -0.3304 0.3151
vn 0.9236 -0.3831 -0.0144
vn 0.1803 -0.9612 -0.2088
vn 0.5346 -0.3304 0.7779
vn 0.1876 -0.7947 0.5773
vn 0.5522 -0.7724 0.3139
vn -0.0913 0.9956 0.0215
vn -0.7947 -0.1876 0.5773
vn -0.5059 -0.8482 0.1569
usemtl マテリアル
s off
f 112/1/1 108/2/1 49/3/1
f 51/4/2 2/5/2 56/6/2
f 64/7/3 63/8/3 59/9/3
f 12/10/4 6/11/4 10/12/4
f 73/13/5 32/14/5 68/15/5
f 46/16/6 47/17/6 3/18/6
f 1/19/7 109/20/7 107/21/7
f 53/22/8 7/23/8 57/24/8
f 16/25/9 11/26/9 8/27/9
f 16/25/10 8/27/10 19/28/10
f 43/29/11 42/30/11 20/31/11
f 59/9/12 14/32/12 60/33/12
f 20/34/13 41/35/13 22/36/13
f 25/37/14 15/38/14 18/39/14
f 3/18/15 24/40/15 23/41/15
f 98/42/16 23/41/16 99/43/16
f 102/44/17 101/45/17 40/46/17
f 28/47/18 5/48/18 4/49/18
f 9/50/19 27/51/19 29/52/19
f 9/50/20 10/53/20 6/54/20
f 118/55/21 31/56/21 34/57/21
f 76/58/22 30/59/22 81/60/22
f 18/39/23 36/61/23 21/62/23
f 11/26/24 12/63/24 9/50/24
f 13/64/25 41/35/25 40/46/25
f 67/65/26 65/66/26 66/67/26
f 120/68/27 103/69/27 122/70/27
f 103/69/28 44/71/28 95/72/28
f 3/18/29 52/73/29 54/74/29
f 52/73/30 3/18/30 47/17/30
f 51/4/31 58/75/31 48/76/31
f 64/7/32 52/73/32 51/4/32
f 64/7/33 24/40/33 54/74/33
f 62/77/34 14/78/34 25/79/34
f 63/8/35 7/23/35 17/80/35
f 83/81/36 66/67/36 65/66/36
f 37/82/37 83/81/37 67/65/37
f 73/13/38 68/15/38 72/83/38
f 70/84/39 71/85/39 104/86/39
f 69/87/40 36/61/40 37/82/40
f 22/36/41 21/62/41 70/84/41
f 75/88/42 84/89/42 30/59/42
f 79/90/43 90/91/43 94/92/43
f 78/93/44 94/92/44 93/94/44
f 106/95/45 77/96/45 114/97/45
f 86/98/46 93/94/46 91/99/46
f 107/100/47 105/101/47 1/19/47
f 77/102/48 106/103/48 33/104/48
f 29/52/49 92/105/49 38/106/49
f 37/82/50 91/99/50 80/107/50
f 87/108/51 56/6/51 88/109/51
f 53/22/52 89/110/52 7/23/52
f 1/19/53 88/109/53 2/5/53
f 1/19/54 85/111/54 86/98/54
f 26/112/55 99/43/55 61/113/55
f 72/83/56 121/114/56 97/115/56
f 3/18/57 96/116/57 95/117/57
f 116/118/58 123/119/58 97/115/58
f 78/93/59 115/120/59 114/121/59
f 117/122/60 113/123/60 124/124/60
f 109/20/61 2/5/61 48/76/61
f 114/121/62 109/20/62 112/1/62
f 78/93/63 93/94/63 85/111/63
f 99/43/64 100/125/64 102/44/64
f 112/126/65 46/16/65 120/68/65
f 119/127/66 72/83/66 32/14/66
f 111/128/67 118/55/67 33/104/67
f 122/70/68 123/119/68 119/127/68
f 59/9/3 60/129/3 62/77/3
f 62/77/3 61/113/3 59/9/3
f 61/113/3 64/7/3 59/9/3
f 1/19/7 2/5/7 109/20/7
f 16/25/9 17/80/9 11/26/9
f 59/9/12 15/38/12 14/32/12
f 42/130/13 41/35/13 20/34/13
f 41/35/13 13/64/13 22/36/13
f 25/37/14 14/32/14 15/38/14
f 15/38/14 17/80/14 18/39/14
f 17/80/14 16/25/14 19/28/14
f 18/39/14 17/80/14 19/28/14
f 18/39/14 21/62/14 25/37/14
f 21/62/14 22/131/14 13/64/14
f 26/112/14 21/62/14 13/64/14
f 26/112/14 25/37/14 21/62/14
f 98/42/15 96/116/15 23/41/15
f 96/116/15 3/18/15 23/41/15
f 4/49/18 89/110/18 28/47/18
f 89/110/18 92/105/18 28/47/18
f 6/54/20 5/48/20 28/47/20
f 28/47/20 27/51/20 6/54/20
f 27/51/20 9/50/20 6/54/20
f 118/55/21 119/127/21 31/56/21
f 18/39/23 35/132/23 36/61/23
f 12/63/69 10/53/69 9/50/69
f 9/50/24 29/52/24 11/26/24
f 29/52/24 39/133/24 35/132/24
f 8/27/69 29/52/69 19/134/69
f 35/132/24 18/39/24 19/134/24
f 35/132/24 19/134/24 29/52/24
f 8/27/24 11/26/24 29/52/24
f 101/45/25 100/125/25 40/46/25
f 100/125/25 26/112/25 40/46/25
f 26/112/25 13/64/25 40/46/25
f 66/67/26 75/88/26 67/65/26
f 75/88/26 74/135/26 67/65/26
f 120/68/27 50/136/27 103/69/27
f 103/69/28 50/136/28 44/71/28
f 47/17/30 45/137/30 58/138/30
f 58/138/30 52/73/30 47/17/30
f 45/139/31 48/76/31 58/75/31
f 48/76/31 2/5/31 51/4/31
f 55/140/32 53/22/32 57/24/32
f 57/24/32 63/8/32 56/6/32
f 63/8/32 64/7/32 51/4/32
f 56/6/32 63/8/32 51/4/32
f 64/7/32 54/74/32 52/73/32
f 52/73/32 58/138/32 51/4/32
f 56/6/32 55/140/32 57/24/32
f 61/113/33 24/40/33 64/7/33
f 24/40/33 3/18/33 54/74/33
f 62/77/34 60/129/34 14/78/34
f 4/49/35 5/48/35 7/23/35
f 5/48/35 6/54/35 7/23/35
f 6/54/35 12/63/35 11/26/35
f 11/26/35 17/80/35 6/54/35
f 17/80/35 15/38/35 63/8/35
f 6/54/35 17/80/35 7/23/35
f 15/38/35 59/9/35 63/8/35
f 63/8/35 57/24/35 7/23/35
f 83/81/36 84/89/36 66/67/36
f 82/141/37 83/81/37 37/82/37
f 83/81/37 65/66/37 67/65/37
f 72/83/38 71/85/38 75/88/38
f 71/85/38 70/84/38 69/87/38
f 69/87/38 74/135/38 75/88/38
f 75/88/38 73/13/38 72/83/38
f 69/87/38 75/88/38 71/85/38
f 104/86/39 102/44/39 70/84/39
f 102/44/39 40/46/39 70/84/39
f 40/46/39 41/35/39 70/84/39
f 41/35/39 42/130/39 43/29/39
f 70/84/39 41/35/39 43/29/39
f 35/132/40 39/133/40 38/106/40
f 38/106/40 37/82/40 35/132/40
f 37/82/40 67/65/40 74/135/40
f 35/132/40 37/82/40 36/61/40
f 74/135/40 69/87/40 37/82/40
f 21/62/41 36/61/41 70/84/41
f 36/61/41 69/87/41 70/84/41
f 70/84/41 43/29/41 22/36/41
f 43/29/41 20/31/41 22/36/41
f 73/13/42 75/88/42 32/14/42
f 75/88/42 66/67/42 84/89/42
f 84/89/42 81/60/42 30/59/42
f 75/88/42 30/59/42 32/14/42
f 30/59/42 33/104/42 32/14/42
f 33/104/42 34/57/42 31/56/42
f 31/56/42 32/14/42 33/104/42
f 79/90/43 80/107/43 90/91/43
f 78/93/70 79/90/70 94/92/70
f 91/99/46 92/105/46 86/98/46
f 92/105/46 89/110/46 88/109/46
f 89/110/46 87/108/46 88/109/46
f 88/109/46 86/98/46 92/105/46
f 86/98/46 85/111/46 93/94/46
f 91/99/46 93/94/46 90/91/46
f 93/94/46 94/92/46 90/91/46
f 106/103/48 111/128/48 33/104/48
f 33/104/48 30/59/48 77/102/48
f 30/59/48 76/58/48 77/102/48
f 38/106/49 39/133/49 29/52/49
f 29/52/49 27/51/49 28/47/49
f 28/47/49 92/105/49 29/52/49
f 92/105/49 91/99/49 38/106/49
f 82/141/50 37/82/50 80/107/50
f 37/82/50 38/106/50 91/99/50
f 80/107/50 91/99/50 90/91/50
f 55/140/51 56/6/51 87/108/51
f 56/6/51 2/5/51 88/109/51
f 53/22/52 55/140/52 89/110/52
f 55/140/52 87/108/52 89/110/52
f 89/110/52 4/49/52 7/23/52
f 1/19/53 86/98/53 88/109/53
f 61/113/55 62/77/55 25/79/55
f 25/79/55 26/112/55 61/113/55
f 26/112/55 100/125/55 99/43/55
f 99/43/55 23/41/55 24/40/55
f 61/113/55 99/43/55 24/40/55
f 121/114/56 116/118/56 97/115/56
f 97/115/56 104/86/56 72/83/56
f 104/86/56 71/85/56 72/83/56
f 44/142/57 46/16/57 95/117/57
f 46/16/57 3/18/57 95/117/57
f 114/121/59 77/102/59 84/89/59
f 77/102/59 76/58/59 81/60/59
f 84/89/59 77/102/59 81/60/59
f 84/89/59 83/81/59 114/121/59
f 83/81/59 82/141/59 80/107/59
f 114/121/59 83/81/59 80/107/59
f 80/107/59 79/90/59 78/93/59
f 114/121/59 80/107/59 78/93/59
f 117/122/60 110/143/60 113/123/60
f 48/76/61 49/3/61 109/20/61
f 49/3/61 108/2/61 109/20/61
f 106/103/62 114/121/62 110/143/62
f 114/121/62 115/120/62 109/20/62
f 113/144/62 114/121/62 112/1/62
f 115/120/62 105/101/62 109/20/62
f 105/101/71 107/100/71 109/20/71
f 109/20/71 108/2/71 112/1/71
f 113/144/62 110/143/62 114/121/62
f 110/143/62 111/128/62 106/103/62
f 85/111/63 1/19/63 105/101/63
f 105/101/63 115/120/63 85/111/63
f 115/120/63 78/93/63 85/111/63
f 101/45/64 102/44/64 100/125/64
f 102/44/64 104/86/64 99/43/64
f 104/86/64 97/115/64 122/70/64
f 97/115/64 123/119/64 122/70/64
f 122/70/64 103/69/64 99/43/64
f 104/86/64 122/70/64 99/43/64
f 103/69/64 95/72/64 99/43/64
f 95/72/64 96/116/64 98/42/64
f 99/43/64 95/72/64 98/42/64
f 46/16/65 44/71/65 50/136/65
f 50/136/65 120/68/65 46/16/65
f 120/68/65 124/145/65 112/126/65
f 124/145/65 113/144/65 112/126/65
f 112/126/65 49/3/65 47/17/65
f 49/3/65 48/76/65 47/17/65
f 48/76/65 45/139/65 47/17/65
f 47/17/65 46/16/65 112/126/65
f 32/14/66 31/56/66 119/127/66
f 119/127/66 121/114/66 72/83/66
f 72/83/66 68/15/66 32/14/66
f 111/128/67 110/143/67 117/122/67
f 117/122/67 118/55/67 111/128/67
f 118/55/67 34/57/67 33/104/67
f 123/119/68 116/118/68 121/114/68
f 121/114/68 119/127/68 123/119/68
f 119/127/68 118/55/68 122/70/68
f 118/55/68 117/122/68 122/70/68
f 117/122/68 124/124/68 120/68/68
f 122/70/68 117/122/68 120/68/68
